<?xml version="1.0" standalone="no"?>
<!DOCTYPE svg PUBLIC "-//W3C//DTD SVG 20010904//EN"
 "http://www.w3.org/TR/2001/REC-SVG-20010904/DTD/svg10.dtd">
<svg version="1.0" xmlns="http://www.w3.org/2000/svg"
 width="1024.000000pt" height="1024.000000pt" viewBox="0 0 1024.000000 1024.000000"
 preserveAspectRatio="xMidYMid meet">

<g transform="translate(0.000000,1024.000000) scale(0.100000,-0.100000)"
fill="#000000" stroke="none">
<path d="M4988 8299 c-177 -17 -539 -95 -708 -153 -225 -78 -319 -116 -465
-191 -141 -72 -155 -81 -125 -81 11 0 20 4 20 8 0 6 76 48 87 48 3 0 1 -5 -2
-11 -4 -6 2 -5 14 3 12 7 21 16 21 21 0 4 5 5 10 2 6 -3 10 -2 10 3 0 12 39
29 84 37 20 4 36 10 36 14 0 4 8 7 18 8 10 1 43 13 73 26 29 14 74 28 99 32
24 4 71 18 105 30 33 13 119 37 190 54 72 18 137 34 145 37 9 3 11 2 5 -4 -5
-5 -57 -21 -115 -37 -270 -72 -678 -252 -894 -395 -452 -298 -813 -693 -1047
-1145 -43 -82 -85 -170 -95 -195 -26 -68 -35 -70 -19 -4 17 72 18 74 4 74 -27
0 -126 -282 -175 -500 -60 -272 -77 -427 -71 -645 4 -104 13 -235 21 -290 21
-134 72 -383 86 -420 12 -29 21 -61 41 -139 14 -58 50 -136 59 -131 5 3 6 -3
3 -14 -3 -11 2 -21 11 -24 9 -4 13 -12 10 -20 -8 -21 61 -164 96 -199 17 -17
29 -37 26 -44 -3 -8 -1 -14 5 -14 5 0 9 -6 8 -12 -3 -25 1 -39 10 -33 5 3 13
0 17 -6 5 -8 3 -9 -6 -4 -21 13 -6 -19 53 -113 53 -84 107 -156 89 -117 -10
21 -12 27 -12 46 0 5 -5 7 -12 3 -8 -5 -9 0 -6 14 4 12 3 20 -1 17 -5 -2 -8 9
-9 26 0 18 3 27 10 23 6 -4 -7 24 -27 61 -21 37 -42 86 -47 109 -17 85 -29
153 -38 216 -4 36 -16 99 -24 140 -17 78 -39 211 -57 340 -6 43 -8 166 -6 285
5 206 6 212 37 295 17 47 36 105 41 129 5 25 18 53 28 62 17 16 19 30 16 141
l-4 123 9 -114 c10 -124 29 -202 66 -271 l24 -45 -25 30 c-14 17 -34 57 -45
90 l-21 60 6 -50 c19 -164 24 -203 33 -232 20 -62 67 -135 115 -179 27 -24 45
-44 39 -44 -6 0 -9 -6 -8 -12 23 -114 102 -209 220 -269 26 -13 50 -30 53 -36
3 -7 20 -13 38 -13 17 0 45 -6 61 -14 16 -8 47 -17 69 -19 22 -3 76 -10 120
-17 44 -7 107 -13 140 -15 66 -2 219 -20 306 -35 30 -6 79 -10 107 -10 29 0
52 -4 52 -8 0 -5 39 -10 87 -11 48 0 105 -6 127 -12 22 -6 74 -13 115 -15 41
-2 108 -10 150 -18 42 -9 96 -17 121 -18 41 -3 45 -6 51 -33 4 -16 7 73 8 199
0 126 3 227 6 224 3 -3 6 -570 6 -1259 -1 -1378 -2 -1332 60 -1494 17 -44 38
-98 47 -121 15 -39 14 -47 -11 -90 -15 -25 -64 -68 -89 -77 -9 -3 -22 1 -29 9
-14 17 -109 68 -109 59 0 -3 -18 4 -39 15 -35 17 -41 25 -47 65 -3 25 -4 86
-2 135 3 69 1 90 -8 86 -7 -3 -34 4 -61 15 -47 19 -47 20 -11 15 22 -3 41 0
46 7 5 7 12 67 14 133 l4 122 -23 -11 c-21 -10 -23 -16 -23 -99 0 -48 -3 -88
-7 -88 -15 0 -199 58 -263 83 -286 110 -630 304 -857 483 -402 318 -737 718
-969 1159 -68 129 -79 141 -38 42 14 -34 32 -81 40 -104 8 -23 33 -74 55 -113
22 -40 38 -74 36 -76 -11 -11 -148 247 -198 373 -17 43 -32 80 -34 82 -2 1 -3
-13 -2 -32 1 -19 5 -33 10 -30 4 2 7 -5 7 -16 0 -11 4 -23 10 -26 16 -10 12
-55 -5 -55 -31 0 -36 -36 -14 -102 77 -231 267 -589 446 -841 76 -107 86 -123
113 -169 14 -23 41 -59 60 -80 19 -20 58 -63 85 -95 28 -31 95 -106 150 -166
55 -60 108 -122 118 -138 11 -16 24 -29 31 -29 12 0 56 -41 56 -52 0 -3 21
-27 46 -54 123 -130 176 -184 180 -184 6 0 23 -15 84 -72 28 -27 55 -48 60
-48 5 0 11 -8 15 -17 3 -10 22 -29 41 -43 20 -14 56 -42 80 -64 24 -21 44 -35
44 -31 0 4 15 -6 34 -21 56 -47 122 -94 132 -94 6 0 38 -18 72 -40 33 -22 66
-40 72 -40 6 0 8 -6 4 -12 -4 -7 -4 -10 0 -6 5 4 25 -2 47 -14 21 -11 46 -21
56 -22 10 -2 18 -8 18 -14 0 -6 3 -14 8 -18 4 -4 7 -2 7 4 0 7 13 4 33 -8 17
-11 40 -20 50 -20 9 0 17 -5 17 -11 0 -5 8 -9 18 -7 11 2 27 -4 37 -12 14 -11
19 -12 22 -2 5 14 33 16 33 2 0 -5 9 -10 20 -10 11 0 20 5 20 12 0 9 3 9 12 0
18 -18 68 -15 68 4 0 12 7 15 29 12 20 -3 33 1 42 14 8 10 21 18 31 18 10 0
18 5 18 10 0 6 15 10 33 10 27 0 36 -6 45 -26 7 -14 16 -22 22 -19 14 9 48
-12 55 -35 3 -11 15 -20 25 -20 10 0 22 -9 25 -20 5 -14 14 -20 28 -18 15 2
25 -4 32 -19 5 -13 15 -23 22 -23 7 0 17 -9 23 -20 6 -11 17 -20 25 -20 8 0
28 -14 45 -30 17 -17 35 -30 41 -30 6 0 9 -10 7 -22 -3 -20 1 -23 31 -21 33 2
91 -23 91 -38 0 -6 73 -20 105 -20 6 0 17 -7 26 -15 14 -12 18 -13 22 -2 4 9
6 8 6 -4 1 -11 14 -18 42 -23 22 -4 43 -13 46 -21 3 -8 9 -11 14 -9 4 3 30 -5
56 -19 27 -13 69 -25 93 -27 25 -1 55 -8 66 -15 18 -11 31 -10 75 1 30 8 77
15 106 15 32 0 53 5 56 13 4 9 8 8 16 -3 7 -9 14 -11 19 -5 12 17 74 36 132
41 30 3 67 6 83 8 15 1 43 3 63 4 20 1 33 6 29 12 -4 6 1 7 11 3 12 -4 15 -3
10 5 -5 8 -2 10 9 5 13 -4 14 -8 4 -14 -8 -4 -11 -10 -8 -13 7 -8 49 5 49 15
0 5 7 9 15 9 8 0 15 -7 15 -17 0 -14 2 -14 20 2 11 10 20 14 20 10 0 -5 5 -4
11 2 6 6 26 9 44 6 27 -4 34 -2 40 16 6 19 14 21 81 21 43 0 74 4 74 10 0 6
23 10 50 10 28 0 50 5 50 10 0 6 8 10 18 10 10 0 24 9 32 20 8 11 22 20 32 20
10 0 18 5 18 10 0 6 9 10 20 10 11 0 20 5 20 10 0 6 8 10 18 10 10 0 22 3 26
7 4 4 34 8 67 8 47 1 63 5 71 18 5 10 13 15 19 12 5 -4 9 -1 9 5 0 7 8 9 21 5
18 -6 20 -4 14 17 -7 23 -7 23 11 3 21 -23 64 -22 64 1 0 7 12 17 27 20 15 4
34 14 42 21 10 10 31 13 67 11 45 -4 55 -1 60 14 3 12 15 18 35 18 16 0 29 5
29 10 0 6 9 10 21 10 11 0 18 4 14 9 -7 12 29 33 39 24 3 -3 6 1 6 10 0 18 16
21 85 18 30 -2 36 1 25 8 -10 7 -11 11 -2 11 6 0 12 5 12 11 0 6 6 17 14 25
13 12 16 12 24 -2 8 -14 11 -14 18 -3 5 8 9 18 9 23 0 5 7 11 15 13 13 4 13 3
0 -7 -13 -10 -12 -11 3 -6 10 3 21 6 23 6 3 0 2 5 -1 10 -3 6 2 10 12 10 10 0
25 9 33 20 8 11 21 20 30 20 9 0 22 9 30 20 10 14 16 16 22 7 6 -9 8 -9 8 1 0
6 9 12 20 12 11 0 20 7 20 15 0 19 67 85 86 85 8 0 14 9 14 21 0 11 5 17 10
14 6 -3 10 -1 10 6 0 7 3 10 6 6 8 -7 34 17 34 32 0 6 3 10 8 10 26 -4 41 3
36 16 -4 10 0 15 10 15 22 0 56 35 80 82 11 21 30 39 43 43 16 4 23 13 23 30
0 18 5 25 19 25 11 0 23 9 26 20 4 11 11 18 16 14 6 -3 8 -13 5 -21 -4 -8 -1
-11 5 -8 6 4 8 13 5 20 -3 8 2 19 10 25 8 7 14 22 15 34 0 11 3 15 6 9 3 -10
8 -10 19 1 8 8 14 20 14 26 0 6 14 13 30 17 20 3 30 12 30 23 0 10 6 21 13 24
10 5 10 7 0 12 -18 8 -16 24 2 24 9 0 20 12 25 26 6 14 14 23 19 20 5 -3 11 4
14 15 4 16 11 20 26 16 17 -4 21 0 21 19 0 17 6 24 20 24 13 0 20 7 20 20 0
13 9 22 25 26 17 4 25 13 25 28 1 29 26 60 41 50 9 -5 10 -2 6 9 -3 9 -2 19 3
22 4 3 10 -1 13 -7 2 -7 8 0 12 17 5 16 15 36 23 44 9 9 13 30 10 63 -2 37 0
48 12 48 19 0 70 43 70 59 0 6 -6 11 -12 11 -9 0 -9 3 1 9 8 5 11 16 8 25 -4
10 -1 16 8 16 8 0 15 5 15 11 0 5 -5 7 -10 4 -5 -3 -10 0 -10 9 0 8 -6 17 -12
20 -7 3 0 3 16 -1 32 -7 46 7 46 48 0 15 7 29 15 33 8 3 15 11 15 18 0 8 9 20
20 28 12 9 20 26 20 43 0 25 3 28 21 24 16 -4 18 -3 8 9 -6 8 -7 14 -2 14 5 0
10 6 10 13 1 6 4 42 8 79 6 52 4 72 -6 85 -13 16 -12 17 4 4 21 -16 35 -7 19
12 -13 15 -8 52 8 72 8 10 7 16 -7 24 -15 9 -16 10 -2 11 14 0 15 7 9 40 -5
27 -4 40 4 40 7 0 12 32 14 87 2 48 9 97 15 108 17 32 18 115 1 115 -8 0 -14
5 -14 10 0 6 5 10 11 10 8 0 8 4 1 13 -6 7 -12 29 -13 48 -2 19 -6 39 -10 44
-4 6 -3 17 2 25 8 12 9 11 7 -4 -2 -10 2 -21 8 -23 6 -2 10 21 10 64 -1 48 3
67 11 66 7 -2 10 4 6 13 -5 13 -7 13 -14 2 -6 -9 -9 -2 -10 20 -1 17 -2 38 -3
45 -1 6 2 15 7 18 7 5 17 113 15 169 -2 109 -4 116 -27 139 -20 20 -22 26 -10
35 16 13 23 36 11 36 -10 0 -9 30 2 48 4 7 2 12 -5 12 -7 0 -9 10 -6 27 3 14
-6 63 -18 107 -13 45 -27 113 -31 151 -4 39 -12 79 -19 90 -7 11 -11 28 -10
37 2 10 -1 20 -5 23 -5 3 -7 12 -4 19 3 7 -2 16 -10 19 -9 4 -16 16 -16 27 0
20 -14 51 -37 80 -6 8 -11 17 -10 20 4 13 -49 137 -65 153 -10 10 -18 24 -18
33 0 19 -88 194 -98 194 -4 0 -23 31 -41 69 -18 38 -41 78 -52 89 -10 12 -24
39 -31 61 -19 60 -30 50 -24 -21 3 -43 0 -33 -9 32 -59 381 -269 875 -523
1227 -41 57 -89 114 -106 126 -17 12 -39 32 -50 45 -10 13 -21 21 -24 17 -3
-3 6 -18 19 -33 89 -97 281 -396 368 -572 213 -432 311 -841 311 -1304 0 -167
-2 -187 -16 -182 -9 3 -28 6 -42 7 -15 0 -21 3 -14 6 19 7 14 23 -7 23 -11 0
-22 -9 -26 -19 -3 -11 -12 -22 -20 -24 -8 -4 -16 -27 -20 -54 -12 -99 -46
-167 -44 -90 0 27 2 29 9 12 7 -16 8 -14 7 11 -3 51 -27 37 -27 -15 0 -90 -81
-450 -143 -642 -41 -122 -144 -356 -214 -484 -340 -616 -851 -1088 -1478
-1367 -49 -22 -146 -59 -214 -83 -68 -24 -127 -47 -132 -52 -9 -9 -17 -223 -8
-223 28 0 265 86 389 141 279 125 533 282 800 496 336 270 583 561 808 957
107 189 136 248 200 411 90 231 162 504 203 780 10 63 14 195 14 439 0 361 5
383 25 115 17 -224 9 -542 -19 -694 -79 -436 -201 -780 -389 -1105 -172 -295
-351 -539 -535 -729 -45 -46 -81 -88 -79 -93 1 -5 -1 -7 -6 -4 -5 3 -71 -46
-148 -109 -76 -63 -199 -154 -272 -203 -72 -49 -129 -92 -125 -97 5 -4 2 -5
-5 -1 -11 6 -222 -97 -222 -109 0 -7 33 7 72 32 21 13 47 23 58 23 14 0 19 4
14 12 -5 8 -2 9 9 5 10 -3 17 -2 17 2 0 5 18 12 40 16 22 4 38 12 37 18 -1 7
5 11 13 9 8 -2 12 0 8 4 -4 4 -3 13 3 20 11 14 62 9 67 -7 2 -5 10 -9 18 -9 8
0 14 -9 14 -20 0 -11 -4 -20 -10 -20 -5 0 -10 -7 -10 -15 0 -8 -7 -15 -15 -15
-8 0 -15 -7 -15 -15 0 -8 -3 -14 -7 -13 -20 5 -73 -15 -73 -28 0 -8 -4 -14
-10 -14 -5 0 -8 -20 -7 -45 2 -38 5 -45 22 -45 11 0 37 11 58 25 20 14 37 23
37 21 0 -8 -109 -80 -157 -105 -52 -26 -68 -27 -30 -3 15 10 25 21 22 24 -3 3
6 5 20 5 39 0 42 11 12 38 -29 28 -57 33 -57 10 0 -8 -7 -15 -15 -15 -8 0 -15
-6 -15 -13 0 -23 -46 -56 -69 -50 -17 4 -21 1 -21 -19 0 -13 -10 -32 -21 -42
-15 -13 -18 -20 -10 -25 7 -5 3 -12 -14 -19 -35 -16 -44 -15 -21 3 14 11 16
15 5 15 -12 0 -12 2 1 10 12 7 12 12 3 21 -9 9 -16 9 -28 -1 -10 -8 -15 -9
-15 -1 0 6 -4 11 -10 11 -5 0 -10 -9 -10 -20 0 -34 -45 -25 -87 16 -31 31 -35
40 -30 70 4 24 2 37 -7 40 -12 5 -120 -30 -141 -46 -37 -27 -296 -85 -306 -69
-4 6 -10 71 -14 144 -8 150 -3 167 50 186 19 7 30 16 25 19 -6 4 -3 26 9 57
19 51 25 137 10 127 -5 -3 -9 -1 -9 5 0 5 5 13 10 16 6 4 8 15 5 26 -4 11 -2
19 4 19 15 0 14 43 -1 58 -9 9 -9 12 -1 12 7 0 10 10 7 23 -15 70 -21 379 -9
418 6 18 4 21 -9 16 -17 -7 -22 8 -6 18 15 9 13 188 -2 204 -7 8 -8 11 -2 8 7
-4 9 37 6 131 -3 104 0 152 12 198 9 34 16 86 16 116 0 30 7 77 15 103 8 27
12 52 9 57 -3 5 1 17 10 27 9 10 16 22 15 27 -4 19 14 74 27 85 8 6 14 17 14
24 0 7 15 25 33 39 17 15 37 31 44 36 7 6 17 10 23 10 5 0 10 5 10 10 0 6 8
10 18 10 9 0 31 9 47 20 17 11 45 20 63 20 18 0 43 5 54 11 12 6 38 11 60 11
21 -1 36 3 33 8 -3 5 4 7 16 5 13 -3 28 0 35 6 8 7 41 9 84 6 39 -3 67 -1 64
4 -3 5 2 6 10 3 8 -3 21 -2 28 2 7 5 48 7 90 5 43 -1 78 1 78 7 0 5 19 10 43
10 114 5 179 12 197 22 21 11 249 31 263 23 19 -11 238 -13 297 -3 36 6 85 14
110 17 25 3 50 8 55 12 6 4 26 7 45 7 20 -1 42 6 52 16 20 20 72 227 90 358
17 129 17 610 0 715 -36 222 -125 550 -197 728 -32 77 -156 307 -167 307 -4 0
12 -34 37 -75 95 -162 202 -443 174 -461 -5 -3 -9 -30 -9 -60 0 -30 -4 -54
-10 -54 -5 0 -10 -11 -10 -25 0 -14 4 -25 9 -25 13 0 20 -49 7 -54 -7 -3 -6
-8 3 -14 8 -6 15 -28 15 -51 0 -23 5 -40 11 -39 5 2 11 -1 12 -6 1 -5 6 -12
12 -16 6 -3 13 -33 16 -65 2 -32 9 -61 15 -65 11 -7 3 -40 -9 -40 -4 0 -13 10
-19 23 -10 20 -17 45 -36 131 -4 15 -9 26 -12 23 -3 -2 4 -40 15 -83 22 -87
34 -172 56 -402 27 -277 15 -301 -68 -136 -31 62 -83 141 -100 151 -7 5 -21
24 -31 43 -11 19 -26 41 -33 48 -7 7 -14 30 -14 50 l-2 37 -8 -40 c-4 -23 -6
54 -5 180 4 260 -4 338 -42 420 -39 81 -130 179 -204 216 -120 61 -141 62
-708 61 -283 -1 -637 1 -787 4 l-272 6 -4 647 c-2 427 -7 659 -14 685 l-11 38
36 -6 c20 -3 46 -6 57 -6 15 0 17 -2 6 -9 -8 -5 -11 -16 -7 -29 7 -21 88 -94
141 -128 42 -26 109 -78 113 -86 2 -5 8 -8 13 -8 5 0 37 -13 71 -29 35 -16 82
-32 106 -35 23 -3 51 -10 61 -15 10 -6 21 -8 24 -4 10 10 187 -58 269 -102 14
-8 34 -15 45 -15 31 0 150 -49 300 -122 34 -17 69 -28 78 -24 9 3 18 0 21 -9
4 -8 14 -15 23 -15 13 0 13 -2 3 -9 -10 -6 -3 -10 22 -15 20 -4 36 -11 36 -17
0 -6 5 -7 10 -4 6 3 10 1 10 -5 0 -6 4 -9 9 -6 5 3 14 -1 21 -10 7 -8 19 -13
27 -10 8 3 11 2 8 -3 -3 -5 -1 -12 5 -16 6 -4 7 -11 4 -17 -4 -6 -2 -8 4 -4 5
3 46 -31 89 -76 71 -76 78 -77 10 -2 -18 20 -25 34 -18 38 6 4 11 4 11 -1 0
-4 4 -1 10 7 10 16 153 33 158 19 2 -5 11 -9 19 -9 13 0 13 3 3 15 -20 24 5
17 26 -7 13 -14 14 -19 4 -14 -8 4 -5 -1 7 -12 12 -11 20 -22 18 -26 -3 -3 -2
-4 2 -1 9 7 43 -47 36 -58 -3 -6 -1 -7 5 -3 8 5 12 -1 12 -14 0 -12 4 -18 10
-15 5 3 29 -24 52 -60 23 -36 46 -65 51 -65 4 0 -9 25 -28 56 -24 37 -38 72
-40 99 -4 51 -11 63 -134 225 -171 225 -349 389 -640 594 -234 164 -688 366
-978 436 -292 71 -533 102 -813 105 -129 2 -278 -1 -332 -6z m370 -36 c-27 -2
-69 -2 -95 0 -27 2 -5 3 47 3 52 0 74 -1 48 -3z m162 -152 c75 -12 -219 -24
-362 -14 -102 6 -114 9 -73 14 72 8 382 9 435 0z m-493 -17 c-3 -3 -12 -4 -19
-1 -8 3 -5 6 6 6 11 1 17 -2 13 -5z m-82 -29 c-28 -12 -57 -30 -64 -39 -7 -9
-17 -13 -22 -10 -5 3 -9 1 -9 -3 0 -5 -11 -20 -25 -35 l-24 -27 31 -6 c30 -7
31 -8 12 -22 -10 -7 -19 -19 -19 -25 0 -14 -21 -22 -28 -10 -3 4 -22 6 -42 4
-26 -3 -39 -11 -50 -31 -19 -35 -19 -19 0 27 28 65 114 137 213 178 73 30 93
30 27 -1z m773 -10 c53 -27 111 -71 77 -57 -45 17 -95 46 -95 54 0 4 -6 8 -14
8 -8 0 -18 5 -21 10 -9 15 1 12 53 -15z m-239 -65 c166 -19 243 -59 294 -154
l22 -41 0 -732 c1 -403 4 -736 9 -740 4 -4 407 -8 894 -8 885 0 887 0 932 -21
59 -28 118 -88 143 -143 25 -58 40 -243 35 -451 -3 -137 -6 -160 -26 -198 -26
-48 -108 -108 -169 -123 -21 -5 -400 -9 -863 -10 -599 0 -841 -3 -885 -12
l-60 -12 -8 -50 c-4 -27 -7 -689 -5 -1470 3 -1597 11 -1451 -76 -1536 -50 -50
-101 -71 -211 -89 -116 -19 -365 -5 -456 25 -24 8 -33 13 -19 10 163 -33 446
-25 556 16 90 33 91 35 40 109 -55 81 -328 350 -356 350 -18 0 -225 -213 -250
-257 -24 -43 -96 -103 -124 -103 -10 0 -13 -6 -10 -15 9 -22 -10 -18 -33 7
-51 56 -48 -27 -51 1513 -2 792 -6 1454 -11 1470 -7 28 -11 30 -67 36 -32 4
-381 4 -774 2 -760 -5 -949 1 -991 31 l-24 18 29 -6 c16 -4 411 -7 878 -6 467
0 872 -2 899 -6 32 -4 49 -11 49 -20 0 -22 18 -16 25 7 4 12 36 53 72 92 36
40 75 84 86 99 15 20 23 25 29 16 4 -7 8 -80 9 -163 l2 -150 7 188 8 187 68
76 c73 80 186 216 182 218 -2 1 -452 -1 -1000 -4 l-996 -5 -76 -81 c-75 -81
-156 -179 -156 -188 0 -3 71 -7 158 -9 l157 -3 -165 -2 c-91 -1 -170 -6 -175
-10 -6 -4 -25 -30 -42 -57 -18 -28 -45 -63 -62 -79 -29 -28 -29 -28 -57 -9
l-29 18 18 -29 c30 -46 -3 -26 -38 23 l-29 42 -7 262 c-5 208 -3 268 7 291 8
16 11 33 7 39 -4 6 -1 7 7 2 10 -6 12 -4 7 9 -4 9 -3 15 2 12 5 -3 18 10 29
29 22 35 77 69 167 100 46 16 122 18 880 20 457 1 844 6 862 10 28 6 33 12 38
49 3 22 7 352 8 732 2 610 4 694 18 710 8 11 20 31 27 46 11 27 50 56 129 97
71 35 333 52 512 31z m-668 -153 c-10 -9 -11 -8 -5 6 3 10 9 15 12 12 3 -3 0
-11 -7 -18z m-456 -75 c-11 -9 -87 -33 -101 -31 -10 1 85 37 101 38 6 1 6 -2
0 -7z m-220 -80 c-6 -5 -26 -15 -45 -22 -65 -23 -360 -172 -360 -181 0 -5 -8
-9 -17 -9 -10 0 -62 -29 -116 -65 -54 -35 -95 -60 -91 -54 22 36 326 210 499
285 117 52 149 63 130 46z m509 -636 l7 -609 -738 6 c-426 4 -777 3 -830 -2
-62 -6 -111 -18 -148 -35 -68 -31 -137 -86 -131 -103 3 -7 -1 -13 -10 -13 -8
0 -12 -4 -9 -10 3 -6 -1 -7 -9 -4 -10 4 -16 1 -16 -9 0 -8 -7 -17 -15 -21 -8
-3 -29 -27 -45 -53 -17 -26 -30 -43 -30 -37 0 15 71 124 81 124 5 0 9 6 9 14
0 36 188 166 241 166 10 0 21 5 25 12 5 8 2 9 -9 5 -25 -10 -20 4 18 47 19 22
32 43 29 48 -3 4 -1 8 3 8 5 0 23 24 41 54 18 30 40 57 50 60 17 6 60 55 58
66 -1 9 105 110 115 110 5 0 9 9 9 20 0 12 7 20 16 20 9 0 18 9 21 20 4 14 11
19 23 15 10 -3 24 0 32 7 29 28 80 60 100 63 12 3 38 16 59 30 21 14 44 25 51
25 7 0 25 6 39 14 14 7 37 16 52 20 15 3 27 13 27 21 0 8 3 14 8 13 4 -1 23 1
42 5 28 6 32 10 20 18 -12 8 -10 9 8 4 13 -4 22 -2 22 4 0 6 7 11 15 11 9 0
18 7 21 15 4 8 15 15 25 15 10 0 19 3 19 8 0 11 69 33 131 41 31 3 63 14 72
22 9 9 39 19 68 23 33 5 48 10 40 15 -10 6 -9 10 5 15 10 4 21 2 24 -4 5 -8 9
-7 13 3 7 17 67 26 202 28 82 1 101 5 107 18 4 9 8 -8 9 -39 2 -49 3 -46 10
30 4 47 7 132 8 189 1 57 3 102 5 100 2 -2 6 -278 10 -613z m-1184 270 c0 -2
-8 -10 -17 -17 -16 -13 -17 -12 -4 4 13 16 21 21 21 13z m-160 -139 c0 -2 -15
-13 -32 -26 l-33 -22 28 25 c26 24 37 31 37 23z m4570 -239 c0 -6 -1 -9 -3 -7
-2 2 -15 22 -31 44 l-28 40 31 -33 c17 -18 31 -37 31 -44z m-4870 -67 c0 -5
-7 -12 -16 -15 -14 -5 -15 -4 -4 9 14 17 20 19 20 6z m548 -1218 c-16 -2 -40
-2 -55 0 -16 2 -3 4 27 4 30 0 43 -2 28 -4z m1452 -3 c0 -10 -1406 -7 -1417 4
-4 3 314 6 705 6 444 0 712 -4 712 -10z m2967 -142 c-3 -8 -6 -5 -6 6 -1 11 2
17 5 13 3 -3 4 -12 1 -19z m-37 -87 c-45 -84 -139 -172 -214 -200 -111 -41
-170 -43 -956 -34 l-745 10 790 1 c845 2 838 2 940 53 65 32 145 113 180 181
16 31 31 55 33 53 2 -2 -11 -31 -28 -64z m-5030 -196 c19 -7 28 -14 20 -14 -8
0 -28 6 -45 14 -39 17 -21 18 25 0z m67 -21 c-3 -3 -12 -4 -19 -1 -8 3 -5 6 6
6 11 1 17 -2 13 -5z m1380 -18 c8 -8 -943 -6 -1182 3 -99 4 125 6 498 5 373
-1 680 -4 684 -8z m191 7 c-27 -2 -69 -2 -95 0 -27 2 -5 3 47 3 52 0 74 -1 48
-3z m1446 -11 c-7 -4 -14 -18 -17 -32 -4 -21 -4 -20 -6 8 -1 24 3 32 17 32 11
0 13 -3 6 -8z m-15 -306 c1 -77 -1 -137 -3 -135 -2 2 -6 76 -9 164 -3 89 -2
149 3 135 4 -14 8 -88 9 -164z m1324 87 c-29 -2 -77 -2 -105 0 -29 2 -6 3 52
3 58 0 81 -1 53 -3z m-1350 -2678 c-45 -117 -169 -217 -313 -252 -134 -34
-538 -26 -652 12 -24 8 -32 12 -18 10 14 -3 77 -13 140 -21 138 -19 396 -14
505 11 152 34 278 131 327 252 l23 58 5 1135 5 1135 3 -1135 3 -1135 -28 -70z
m3187 1625 c0 -5 -4 -10 -10 -10 -5 0 -10 5 -10 10 0 6 5 10 10 10 6 0 10 -4
10 -10z m-6726 -186 c14 -26 20 -42 13 -36 -17 14 -63 97 -49 88 6 -3 22 -27
36 -52z m5187 -801 c0 -5 2 -19 5 -33 15 -95 10 -140 -21 -177 -5 -7 -16 -19
-23 -28 -10 -12 -28 -15 -60 -14 -78 5 -132 0 -132 -12 0 -12 -25 -39 -35 -39
-4 0 -4 15 -1 34 7 37 -9 59 -25 35 -5 -8 -9 -9 -9 -3 0 15 35 46 43 37 4 -3
7 -1 7 6 0 7 5 9 12 5 6 -4 8 -3 4 4 -3 6 0 14 7 19 8 4 43 33 78 64 35 31 78
68 94 82 29 26 54 34 56 20z m69 -176 c-31 -29 -80 -72 -110 -96 -30 -25 -10
-2 45 52 55 53 105 96 110 96 6 0 -15 -23 -45 -52z m-445 -127 c4 -6 -7 -10
-27 -10 -25 0 -29 3 -18 10 19 13 37 13 45 0z m95 -26 c0 -10 -28 -34 -39 -34
-6 0 -11 9 -11 20 0 15 7 20 25 20 14 0 25 -3 25 -6z m70 -77 c0 -8 -92 -69
-96 -64 -3 3 14 18 38 35 40 28 58 37 58 29z m-100 -31 c0 -2 -6 -9 -14 -15
-11 -9 -16 -9 -22 0 -4 7 -3 9 4 5 6 -3 13 -2 17 4 6 10 15 14 15 6z m-15 -46
c-3 -5 -16 -15 -28 -21 -19 -9 -19 -8 3 10 28 23 34 26 25 11z m-645 -110 c0
-5 -5 -10 -11 -10 -5 0 -7 5 -4 10 3 6 8 10 11 10 2 0 4 -4 4 -10z m-373 -16
c-3 -3 -12 -4 -19 -1 -8 3 -5 6 6 6 11 1 17 -2 13 -5z m307 -19 c3 -8 1 -15
-4 -15 -6 0 -10 7 -10 15 0 8 2 15 4 15 2 0 6 -7 10 -15z m1810 -30 c3 -8 1
-15 -4 -15 -6 0 -10 7 -10 15 0 8 2 15 4 15 2 0 6 -7 10 -15z m-1394 0 c0 -7
-73 -55 -84 -55 -5 0 11 13 35 30 47 31 49 33 49 25z m-722 -56 c-10 -5 -18
-18 -18 -27 0 -9 -9 -30 -20 -47 -12 -19 -20 -47 -20 -75 0 -44 -16 -158 -26
-192 -6 -19 -64 -26 -64 -8 0 6 -7 10 -15 10 -8 0 -15 5 -15 12 0 7 -16 29
-36 49 -31 32 -35 41 -29 68 4 17 10 31 15 31 4 0 36 27 70 61 34 33 73 64 86
69 14 6 24 18 24 29 0 12 8 21 23 24 38 7 43 7 25 -4z m502 -63 c0 -2 -13 -9
-30 -15 -16 -5 -30 -6 -30 -1 0 7 10 11 53 19 4 0 7 -1 7 -3z m-1850 -66 c8
-5 11 -10 5 -10 -5 0 -17 5 -25 10 -8 5 -10 10 -5 10 6 0 17 -5 25 -10z m2270
-620 c0 -5 -4 -10 -10 -10 -5 0 -10 5 -10 10 0 6 5 10 10 10 6 0 10 -4 10 -10z
m-1217 -287 c-7 -2 -19 -2 -25 0 -7 3 -2 5 12 5 14 0 19 -2 13 -5z"/>
<path d="M5460 7761 c-47 -15 -102 -37 -123 -47 l-38 -19 3 -655 c3 -868 7
-1081 22 -1069 15 13 191 140 222 160 14 9 37 15 52 13 15 -2 20 -1 11 2 -11
3 8 28 70 91 l86 86 0 536 c0 472 -2 545 -17 610 -18 75 -55 134 -120 190 -15
13 -29 33 -29 45 -1 15 -3 13 -9 -9 -7 -29 -8 -28 -9 11 0 24 -9 51 -18 62
l-18 21 -85 -28z m131 -1326 c-6 -151 -8 -174 -9 -94 -2 107 9 337 15 309 2
-8 -1 -105 -6 -215z"/>
<path d="M5014 6565 c0 -121 2 -169 3 -107 2 62 2 161 0 220 -1 59 -3 8 -3
-113z"/>
<path d="M5012 6305 c0 -16 2 -22 5 -12 2 9 2 23 0 30 -3 6 -5 -1 -5 -18z"/>
<path d="M7695 6151 c-83 -33 -78 -21 -76 -187 1 -82 0 -146 -3 -144 -2 3 -7
61 -10 129 -9 174 -17 180 -129 98 -108 -80 -106 -73 -45 -157 129 -177 162
-207 171 -158 2 13 5 -2 6 -33 1 -55 2 -57 60 -112 33 -32 62 -57 66 -57 3 0
13 16 21 37 21 49 33 500 15 555 -15 45 -26 50 -76 29z"/>
<path d="M5339 5942 l-26 -3 -6 -136 c-4 -75 -7 -797 -7 -1604 l0 -1468 78
-52 c72 -49 117 -84 169 -130 l22 -20 4 53 3 53 2 -63 c2 -59 4 -65 40 -97 49
-46 119 -83 131 -70 23 24 33 682 28 1759 -3 599 -1 1116 3 1149 5 33 14 65
20 71 8 8 270 13 898 16 837 5 889 7 922 24 19 10 36 20 38 21 1 1 -16 43 -39
93 -36 79 -46 93 -73 102 -22 7 -339 10 -994 8 -528 -2 -955 0 -949 3 21 11
507 19 1213 20 379 0 696 4 703 9 11 6 4 21 -30 63 -117 147 -161 197 -172
197 -7 0 -448 1 -982 3 -533 1 -982 1 -996 -1z m21 -47 c19 -19 32 -35 29 -35
-3 0 -20 16 -39 35 -19 19 -32 35 -29 35 3 0 20 -16 39 -35z m237 -512 c-2
-16 -4 -5 -4 22 0 28 2 40 4 28 2 -13 2 -35 0 -50z m-10 -485 c-2 -18 -4 -6
-4 27 0 33 2 48 4 33 2 -15 2 -42 0 -60z m0 -586 c-1 -81 -3 -12 -3 153 0 165
2 231 3 147 2 -84 2 -219 0 -300z m0 -304 c-2 -18 -4 -4 -4 32 0 36 2 50 4 33
2 -18 2 -48 0 -65z m0 -1045 c-1 -164 -2 -32 -2 292 0 325 1 459 2 298 2 -160
2 -426 0 -590z"/>
<path d="M5033 5385 c0 -22 2 -30 4 -17 2 12 2 30 0 40 -3 9 -5 -1 -4 -23z"/>
<path d="M5014 4565 c0 -66 1 -92 3 -57 2 34 2 88 0 120 -2 31 -3 3 -3 -63z"/>
<path d="M5012 4270 c0 -19 2 -27 5 -17 2 9 2 25 0 35 -3 9 -5 1 -5 -18z"/>
<path d="M5010 3035 c0 -192 2 -346 5 -343 7 7 7 680 0 686 -3 3 -5 -151 -5
-343z"/>
<path d="M3617 7840 c-8 -11 -17 -17 -20 -14 -10 10 -57 -25 -57 -41 0 -13 4
-13 23 -3 33 19 58 41 68 60 13 24 3 23 -14 -2z"/>
<path d="M3515 7779 c-4 -6 -5 -12 -2 -15 2 -3 7 2 10 11 7 17 1 20 -8 4z"/>
<path d="M3355 7660 c-11 -5 -16 -9 -11 -9 6 -1 -5 -12 -24 -26 -19 -14 -29
-25 -24 -25 6 0 28 16 50 35 41 36 42 39 9 25z"/>
<path d="M7850 7402 c0 -11 39 -47 44 -41 2 2 -7 14 -20 27 -13 12 -24 19 -24
14z"/>
<path d="M5971 6868 l-1 -398 123 1 c67 0 117 3 111 5 -7 3 -8 21 -4 51 9 56
-6 309 -20 341 -6 13 -10 34 -10 47 0 43 -89 201 -140 249 -30 28 -50 56 -53
73 -2 16 -5 -151 -6 -369z"/>
<path d="M2663 6913 c-39 -57 -102 -163 -91 -153 4 3 33 46 65 95 72 111 75
115 70 115 -2 0 -22 -26 -44 -57z"/>
<path d="M7902 6920 c0 -14 2 -19 5 -12 2 6 2 18 0 25 -3 6 -5 1 -5 -13z"/>
<path d="M7660 6846 c0 -2 8 -10 18 -17 15 -13 16 -12 3 4 -13 16 -21 21 -21
13z"/>
<path d="M2540 6711 c-11 -23 -18 -41 -16 -41 8 0 48 71 43 76 -3 3 -15 -12
-27 -35z"/>
<path d="M7785 6676 c10 -14 19 -26 22 -26 7 0 -17 39 -28 46 -6 3 -3 -5 6
-20z"/>
<path d="M2479 6599 c-16 -34 -28 -68 -24 -76 7 -21 15 -12 25 29 4 18 15 50
24 71 26 59 9 43 -25 -24z"/>
<path d="M8097 6089 c4 -13 8 -18 11 -10 2 7 -1 18 -6 23 -8 8 -9 4 -5 -13z"/>
<path d="M8116 6040 c11 -43 21 -55 20 -22 0 16 -4 28 -8 26 -3 -2 -9 2 -12 8
-3 7 -3 2 0 -12z"/>
<path d="M8141 5970 c0 -8 4 -24 9 -35 5 -13 9 -14 9 -5 0 8 -4 24 -9 35 -5
13 -9 14 -9 5z"/>
<path d="M8411 5208 c-1 -21 4 -38 9 -38 11 0 11 14 0 50 -7 22 -8 21 -9 -12z"/>
<path d="M8231 4654 c0 -11 3 -14 6 -6 3 7 2 16 -1 19 -3 4 -6 -2 -5 -13z"/>
<path d="M2700 3861 c0 -5 7 -15 17 -22 15 -13 15 -12 4 9 -12 23 -21 28 -21
13z"/>
<path d="M4421 2294 c0 -11 3 -14 6 -6 3 7 2 16 -1 19 -3 4 -6 -2 -5 -13z"/>
<path d="M6725 2230 c-3 -5 -1 -10 4 -10 6 0 11 5 11 10 0 6 -2 10 -4 10 -3 0
-8 -4 -11 -10z"/>
<path d="M10120 60 c0 -13 -7 -20 -20 -20 -13 0 -20 -7 -20 -20 0 -17 7 -20
40 -20 l40 0 0 40 c0 33 -3 40 -20 40 -13 0 -20 -7 -20 -20z"/>
</g>
</svg>
